<mxfile host="app.diagrams.net" agent="Mozilla/5.0 (Windows NT 10.0; Win64; x64) AppleWebKit/537.36 (KHTML, like Gecko) Chrome/141.0.0.0 Safari/537.36" version="28.2.5">
  <diagram name="Page-1" id="K3OOBMfh0Gno7vA91lNq">
    <mxGraphModel dx="1217" dy="2202" grid="1" gridSize="10" guides="1" tooltips="1" connect="1" arrows="1" fold="1" page="1" pageScale="1" pageWidth="850" pageHeight="1100" math="0" shadow="0">
      <root>
        <mxCell id="0" />
        <mxCell id="1" parent="0" />
        <mxCell id="IqzsYsQvZj2FuSScJM86-5" value="" style="rounded=0;whiteSpace=wrap;html=1;fillColor=default;" vertex="1" parent="1">
          <mxGeometry x="370" width="820" height="680" as="geometry" />
        </mxCell>
        <mxCell id="IqzsYsQvZj2FuSScJM86-8" style="edgeStyle=orthogonalEdgeStyle;rounded=0;orthogonalLoop=1;jettySize=auto;html=1;exitX=1;exitY=0.5;exitDx=0;exitDy=0;entryX=0;entryY=0.5;entryDx=0;entryDy=0;" edge="1" parent="1" source="IqzsYsQvZj2FuSScJM86-1" target="IqzsYsQvZj2FuSScJM86-7">
          <mxGeometry relative="1" as="geometry" />
        </mxCell>
        <mxCell id="IqzsYsQvZj2FuSScJM86-1" value="" style="rounded=0;whiteSpace=wrap;html=1;fillColor=default;" vertex="1" parent="1">
          <mxGeometry x="60" y="130" width="200" height="420" as="geometry" />
        </mxCell>
        <mxCell id="IqzsYsQvZj2FuSScJM86-2" value="Client Apps" style="text;html=1;align=center;verticalAlign=middle;whiteSpace=wrap;rounded=0;fontSize=15;" vertex="1" parent="1">
          <mxGeometry x="110" y="100" width="100" height="30" as="geometry" />
        </mxCell>
        <mxCell id="IqzsYsQvZj2FuSScJM86-3" value="Mobile" style="shape=tape;whiteSpace=wrap;html=1;strokeWidth=2;size=0.19" vertex="1" parent="1">
          <mxGeometry x="110" y="210" width="100" height="65" as="geometry" />
        </mxCell>
        <mxCell id="IqzsYsQvZj2FuSScJM86-4" value="Webpage" style="shape=tape;whiteSpace=wrap;html=1;strokeWidth=2;size=0.19" vertex="1" parent="1">
          <mxGeometry x="110" y="360" width="100" height="65" as="geometry" />
        </mxCell>
        <mxCell id="IqzsYsQvZj2FuSScJM86-6" value="System" style="text;html=1;align=center;verticalAlign=middle;whiteSpace=wrap;rounded=0;fontSize=15;" vertex="1" parent="1">
          <mxGeometry x="670" y="-30" width="60" height="30" as="geometry" />
        </mxCell>
        <mxCell id="IqzsYsQvZj2FuSScJM86-13" style="edgeStyle=orthogonalEdgeStyle;rounded=0;orthogonalLoop=1;jettySize=auto;html=1;exitX=1;exitY=0.5;exitDx=0;exitDy=0;entryX=0;entryY=0.5;entryDx=0;entryDy=0;" edge="1" parent="1" source="IqzsYsQvZj2FuSScJM86-7" target="IqzsYsQvZj2FuSScJM86-9">
          <mxGeometry relative="1" as="geometry" />
        </mxCell>
        <mxCell id="IqzsYsQvZj2FuSScJM86-7" value="API Gateway" style="rounded=1;whiteSpace=wrap;html=1;fillColor=default;" vertex="1" parent="1">
          <mxGeometry x="410" y="117.5" width="140" height="445" as="geometry" />
        </mxCell>
        <mxCell id="IqzsYsQvZj2FuSScJM86-15" style="edgeStyle=orthogonalEdgeStyle;rounded=0;orthogonalLoop=1;jettySize=auto;html=1;exitX=1;exitY=0.5;exitDx=0;exitDy=0;entryX=0;entryY=0.5;entryDx=0;entryDy=0;" edge="1" parent="1" source="IqzsYsQvZj2FuSScJM86-9" target="IqzsYsQvZj2FuSScJM86-12">
          <mxGeometry relative="1" as="geometry">
            <Array as="points">
              <mxPoint x="810" y="340" />
              <mxPoint x="810" y="390" />
              <mxPoint x="940" y="390" />
              <mxPoint x="940" y="340" />
            </Array>
          </mxGeometry>
        </mxCell>
        <mxCell id="IqzsYsQvZj2FuSScJM86-9" value="Auth Service" style="rounded=1;whiteSpace=wrap;html=1;fillColor=default;" vertex="1" parent="1">
          <mxGeometry x="670" y="310" width="120" height="60" as="geometry" />
        </mxCell>
        <mxCell id="IqzsYsQvZj2FuSScJM86-10" value="PostgreSQL RDB" style="shape=cylinder3;whiteSpace=wrap;html=1;boundedLbl=1;backgroundOutline=1;size=15;fontSize=10;" vertex="1" parent="1">
          <mxGeometry x="850" y="300" width="60" height="80" as="geometry" />
        </mxCell>
        <mxCell id="IqzsYsQvZj2FuSScJM86-12" value="Message Queue" style="rounded=1;whiteSpace=wrap;html=1;fillColor=default;" vertex="1" parent="1">
          <mxGeometry x="1020" y="117.5" width="140" height="445" as="geometry" />
        </mxCell>
        <mxCell id="IqzsYsQvZj2FuSScJM86-14" style="edgeStyle=orthogonalEdgeStyle;rounded=0;orthogonalLoop=1;jettySize=auto;html=1;exitX=1;exitY=0.5;exitDx=0;exitDy=0;entryX=0;entryY=0.5;entryDx=0;entryDy=0;entryPerimeter=0;" edge="1" parent="1" source="IqzsYsQvZj2FuSScJM86-9" target="IqzsYsQvZj2FuSScJM86-10">
          <mxGeometry relative="1" as="geometry" />
        </mxCell>
      </root>
    </mxGraphModel>
  </diagram>
</mxfile>
